<svg width="13" height="13" viewBox="0 0 13 13" fill="none" xmlns="http://www.w3.org/2000/svg">
<path d="M4.81443 12.223C5.16264 12.223 5.43733 12.0777 5.62818 11.7866L11.9226 1.97413C12.0636 1.75341 12.1201 1.56873 12.1201 1.38699C12.1201 0.925877 11.7959 0.607666 11.3299 0.607666C10.9994 0.607666 10.8075 0.718826 10.607 1.03356L4.78764 10.2787L1.78884 6.42284C1.59371 6.16439 1.38894 6.05616 1.09966 6.05616C0.621534 6.05616 0.285645 6.39084 0.285645 6.85313C0.285645 7.05176 0.359841 7.25239 0.526848 7.4553L3.99627 11.796C4.2273 12.085 4.47707 12.223 4.81443 12.223Z" fill="#3A4857"/>
</svg>
